<svg width="50" height="51" viewBox="0 0 50 51" fill="none" xmlns="http://www.w3.org/2000/svg">
<path d="M25 19.6183C23.8227 19.6187 22.6719 19.9682 21.6932 20.6227C20.7145 21.2771 19.9519 22.207 19.5016 23.2948C19.0514 24.3826 18.9338 25.5795 19.1638 26.7342C19.3937 27.8888 19.9609 28.9494 20.7935 29.7817C21.6262 30.614 22.6869 31.1808 23.8417 31.4103C24.9964 31.6398 26.1932 31.5218 27.2809 31.0712C28.3686 30.6205 29.2982 29.8575 29.9522 28.8786C30.6063 27.8996 30.9554 26.7487 30.9554 25.5714C30.9542 23.9925 30.3263 22.4787 29.2096 21.3624C28.093 20.2462 26.5789 19.6189 25 19.6183ZM38.9185 15.0424C38.6155 14.2744 38.1578 13.5768 37.574 12.993C36.9902 12.4091 36.2926 11.9515 35.5246 11.6484C33.1808 10.7232 27.6004 10.9308 25 10.9308C22.3996 10.9308 16.8248 10.7154 14.4743 11.6484C13.7063 11.9515 13.0087 12.4091 12.4249 12.993C11.8411 13.5768 11.3834 14.2744 11.0804 15.0424C10.1562 17.3861 10.3627 22.9721 10.3627 25.5703C10.3627 28.1685 10.1563 33.7477 11.0848 36.0993C11.3879 36.8673 11.8455 37.5649 12.4294 38.1488C13.0132 38.7326 13.7108 39.1902 14.4788 39.4933C16.8225 40.4185 22.4029 40.2109 25.0045 40.2109C27.606 40.2109 33.1786 40.4263 35.529 39.4933C36.2971 39.1902 36.9946 38.7326 37.5785 38.1488C38.1623 37.5649 38.6199 36.8673 38.923 36.0993C39.8549 33.7556 39.6406 28.1696 39.6406 25.5714C39.6406 22.9732 39.8549 17.3951 38.923 15.0435L38.9185 15.0424ZM25 34.7232C23.1899 34.7232 21.4205 34.1865 19.9155 33.1808C18.4105 32.1752 17.2375 30.7459 16.5449 29.0736C15.8522 27.4014 15.6709 25.5613 16.0241 23.786C16.3772 22.0107 17.2488 20.38 18.5287 19.1001C19.8086 17.8202 21.4393 16.9486 23.2146 16.5955C24.9898 16.2424 26.83 16.4236 28.5022 17.1163C30.1745 17.8089 31.6038 18.9819 32.6094 20.4869C33.615 21.992 34.1518 23.7614 34.1518 25.5714C34.1533 26.7737 33.9175 27.9644 33.4581 29.0754C32.9987 30.1864 32.3247 31.1959 31.4746 32.046C30.6245 32.8961 29.615 33.5701 28.504 34.0295C27.393 34.4889 26.2022 34.7247 25 34.7232ZM34.529 18.1719C34.1065 18.1721 33.6934 18.047 33.3419 17.8124C32.9905 17.5778 32.7165 17.2443 32.5547 16.8539C32.3928 16.4636 32.3504 16.0341 32.4327 15.6196C32.5149 15.2052 32.7183 14.8245 33.017 14.5256C33.3157 14.2267 33.6963 14.0232 34.1107 13.9407C34.5252 13.8581 34.9547 13.9004 35.3451 14.062C35.7355 14.2237 36.0692 14.4975 36.304 14.8488C36.5388 15.2001 36.6641 15.6132 36.6641 16.0357C36.6652 16.3163 36.611 16.5944 36.5045 16.8539C36.3979 17.1135 36.2412 17.3495 36.0433 17.5484C35.8453 17.7473 35.6101 17.9051 35.351 18.0129C35.0919 18.1206 34.8141 18.1762 34.5335 18.1763L34.529 18.1719ZM44.6429 0.571411H5.35714C3.93634 0.571411 2.57373 1.13582 1.56907 2.14048C0.564412 3.14514 0 4.50775 0 5.92855L0 45.2143C0 46.6351 0.564412 47.9977 1.56907 49.0023C2.57373 50.007 3.93634 50.5714 5.35714 50.5714H44.6429C46.0637 50.5714 47.4263 50.007 48.4309 49.0023C49.4356 47.9977 50 46.6351 50 45.2143V5.92855C50 4.50775 49.4356 3.14514 48.4309 2.14048C47.4263 1.13582 46.0637 0.571411 44.6429 0.571411ZM42.7321 32.9375C42.5882 35.798 41.9353 38.3326 39.8471 40.4152C37.7589 42.4978 35.2266 43.164 32.3694 43.3002C29.4219 43.4665 20.5848 43.4665 17.6373 43.3002C14.7768 43.1562 12.2511 42.5022 10.1596 40.4152C8.06808 38.3281 7.41071 35.7924 7.27455 32.9375C7.10826 29.9888 7.10826 21.1507 7.27455 18.2053C7.41853 15.3448 8.06362 12.8103 10.1596 10.7277C12.2556 8.64507 14.7879 7.98659 17.6373 7.85043C20.5848 7.68413 29.4219 7.68413 32.3694 7.85043C35.2299 7.9944 37.7634 8.64842 39.8471 10.7355C41.9308 12.8225 42.596 15.3582 42.7321 18.2187C42.8984 21.1562 42.8984 29.9866 42.7321 32.9375Z" fill="#2C3333"/>
</svg>
