<svg width="29" height="33" viewBox="0 0 29 33" fill="none" xmlns="http://www.w3.org/2000/svg">
<circle cx="14" cy="14" r="14" fill="#A5C9CA" fill-opacity="0.5"/>
<path d="M25.7656 5.81641H14.2344C12.875 5.81641 11.7617 6.92969 11.7617 8.28906V29.7109C11.7617 31.0703 12.875 32.1836 14.2344 32.1836H25.7715C27.1309 32.1836 28.2441 31.0703 28.2441 29.7109V8.28906C28.2383 6.92969 27.125 5.81641 25.7656 5.81641ZM16.707 7.05273H23.2988V7.87891H16.707V7.05273ZM20 30.5371C19.0918 30.5371 18.3535 29.7988 18.3535 28.8906C18.3535 27.9824 19.0918 27.2441 20 27.2441C20.9082 27.2441 21.6465 27.9824 21.6465 28.8906C21.6465 29.7988 20.9082 30.5371 20 30.5371ZM26.5918 25.5918H13.4082V9.10937H26.5918V25.5918Z" fill="black"/>
</svg>
