<svg width="50" height="50" viewBox="0 0 50 50" fill="none" xmlns="http://www.w3.org/2000/svg">
<g clip-path="url(#clip0_203_534)">
<path d="M42.5979 42.6083H35.1937V31.0063C35.1937 28.2396 35.1375 24.6792 31.3354 24.6792C27.475 24.6792 26.8854 27.6896 26.8854 30.8021V42.6083H19.4812V18.75H26.5938V22.0021H26.6896C27.6833 20.1271 30.1 18.1479 33.7104 18.1479C41.2125 18.1479 42.6 23.0854 42.6 29.5125V42.6083H42.5979ZM11.1187 15.4854C10.5539 15.4857 9.99456 15.3746 9.47272 15.1584C8.95088 14.9423 8.47678 14.6253 8.07758 14.2257C7.67837 13.8261 7.36189 13.3517 7.14624 12.8297C6.93059 12.3076 6.82001 11.7482 6.82083 11.1833C6.82124 10.3329 7.07384 9.50163 7.54667 8.79473C8.0195 8.08783 8.69134 7.53701 9.47722 7.21194C10.2631 6.88686 11.1277 6.80213 11.9618 6.96845C12.7958 7.13477 13.5618 7.54467 14.1629 8.14633C14.7639 8.74799 15.1731 9.51437 15.3386 10.3486C15.5041 11.1828 15.4186 12.0473 15.0927 12.8329C14.7669 13.6184 14.2154 14.2897 13.5081 14.7619C12.8007 15.234 11.9692 15.4858 11.1187 15.4854ZM14.8312 42.6083H7.40625V18.75H14.8312V42.6083ZM46.3021 0H3.68958C1.65 0 0 1.6125 0 3.60208V46.3979C0 48.3896 1.65 50 3.68958 50H46.2958C48.3333 50 50 48.3896 50 46.3979V3.60208C50 1.6125 48.3333 0 46.2958 0H46.3021Z" fill="#2C3333"/>
</g>
<defs>
<clipPath id="clip0_203_534">
<rect width="50" height="50" fill="white"/>
</clipPath>
</defs>
</svg>
