<svg width="350" height="75" viewBox="0 0 350 75" fill="none" xmlns="http://www.w3.org/2000/svg">
<path d="M3.78 56.5625V18.7625H14.472V56.5625H3.78ZM22.0788 56.5625V18.7625H32.7708V48.0845H50.8068V56.5625H22.0788ZM80.3098 18.7625H91.0018V56.5625H80.3098V18.7625ZM65.7298 56.5625H55.0378V18.7625H65.7298V56.5625ZM81.0658 41.8205H64.9738V32.9645H81.0658V41.8205ZM94.0077 56.5625L110.694 18.7625H121.224L137.964 56.5625H126.84L113.772 24.0005H117.984L104.916 56.5625H94.0077ZM103.134 49.2185L105.888 41.3345H124.356L127.11 49.2185H103.134ZM140.995 56.5625V18.7625H149.797L165.457 44.4665H160.813L176.041 18.7625H184.843L184.951 56.5625H175.123L175.015 33.7205H176.689L165.295 52.8365H160.543L148.825 33.7205H150.877V56.5625H140.995ZM211.362 57.3185C208.374 57.3185 205.602 56.8505 203.046 55.9145C200.526 54.9425 198.33 53.5745 196.458 51.8105C194.622 50.0465 193.182 47.9765 192.138 45.6005C191.094 43.1885 190.572 40.5425 190.572 37.6625C190.572 34.7825 191.094 32.1545 192.138 29.7785C193.182 27.3665 194.622 25.2785 196.458 23.5145C198.33 21.7505 200.526 20.4005 203.046 19.4645C205.602 18.4925 208.374 18.0065 211.362 18.0065C214.854 18.0065 217.968 18.6185 220.704 19.8425C223.476 21.0665 225.78 22.8305 227.616 25.1345L220.812 31.2905C219.588 29.8505 218.238 28.7525 216.762 27.9965C215.322 27.2405 213.702 26.8625 211.902 26.8625C210.354 26.8625 208.932 27.1145 207.636 27.6185C206.34 28.1225 205.224 28.8605 204.288 29.8325C203.388 30.7685 202.668 31.9025 202.128 33.2345C201.624 34.5665 201.372 36.0425 201.372 37.6625C201.372 39.2825 201.624 40.7585 202.128 42.0905C202.668 43.4225 203.388 44.5745 204.288 45.5465C205.224 46.4825 206.34 47.2025 207.636 47.7065C208.932 48.2105 210.354 48.4625 211.902 48.4625C213.702 48.4625 215.322 48.0845 216.762 47.3285C218.238 46.5725 219.588 45.4745 220.812 44.0345L227.616 50.1905C225.78 52.4585 223.476 54.2225 220.704 55.4825C217.968 56.7065 214.854 57.3185 211.362 57.3185ZM232.384 56.5625V18.7625H249.664C253.12 18.7625 256.09 19.3205 258.574 20.4365C261.094 21.5525 263.038 23.1725 264.406 25.2965C265.774 27.3845 266.458 29.8685 266.458 32.7485C266.458 35.5925 265.774 38.0585 264.406 40.1465C263.038 42.1985 261.094 43.7825 258.574 44.8985C256.09 45.9785 253.12 46.5185 249.664 46.5185H238.324L243.076 42.0365V56.5625H232.384ZM255.766 56.5625L246.37 42.7925H257.764L267.214 56.5625H255.766ZM243.076 43.1705L238.324 38.2565H249.016C251.248 38.2565 252.904 37.7705 253.984 36.7985C255.1 35.8265 255.658 34.4765 255.658 32.7485C255.658 30.9845 255.1 29.6165 253.984 28.6445C252.904 27.6725 251.248 27.1865 249.016 27.1865H238.324L243.076 22.2725V43.1705ZM282.184 33.3965H299.734V41.3885H282.184V33.3965ZM282.94 48.3005H302.704V56.5625H272.356V18.7625H302.002V27.0245H282.94V48.3005ZM304.101 56.5625L320.787 18.7625H331.317L348.057 56.5625H336.933L323.865 24.0005H328.077L315.009 56.5625H304.101ZM313.227 49.2185L315.981 41.3345H334.449L337.203 49.2185H313.227Z" fill="#2C3333"/>
<rect x="3.71362" y="63.75" width="181.034" height="11.25" fill="#395B64"/>
<rect x="189.39" width="157.825" height="6.5625" fill="#395B64"/>
</svg>
