<svg width="35" height="30" viewBox="0 0 35 30" fill="none" xmlns="http://www.w3.org/2000/svg">
<circle cx="14" cy="14" r="14" fill="#E7F6F2" fill-opacity="0.9"/>
<path d="M16.7505 28.4723H16.9576L17.1041 28.3258L18.5456 26.8842L18.8992 26.5307L18.5456 26.1771L14.8229 22.4544L14.4693 22.1008L14.1157 22.4544L12.6742 23.896L12.5277 24.0424V24.2495V25.9446V26.4446H13.0277H14.5554V27.9723V28.4723H15.0554H16.7505ZM15.4781 21.2663L15.478 21.2664C15.3093 21.4352 15.2209 21.6525 15.2209 21.8891C15.2209 22.0824 15.2695 22.3191 15.4544 22.504C15.6394 22.689 15.8761 22.7376 16.0694 22.7376C16.3061 22.7376 16.5235 22.649 16.6922 22.4803L16.6923 22.4803L25.2784 13.8941L25.2786 13.894C25.4472 13.7252 25.5356 13.5079 25.5356 13.2713C25.5356 13.078 25.487 12.8413 25.3021 12.6563C25.1171 12.4714 24.8804 12.4228 24.6871 12.4228C24.4504 12.4228 24.233 12.5114 24.0643 12.6801L15.4781 21.2663ZM31.7842 15.0988L25.9022 9.21691L28.1762 6.9566L28.1816 6.95131L28.1867 6.94585C28.4692 6.6477 28.8116 6.5 29.2495 6.5C29.6746 6.5 30.0285 6.64651 30.3375 6.95553L30.3383 6.95629L34.0557 10.6579C34.3585 10.9791 34.5 11.3362 34.5 11.7505C34.5 12.1795 34.3559 12.527 34.0603 12.8227L31.7842 15.0988ZM24.1802 10.9368L30.0632 16.8198L17.383 29.5H11.5V23.617L24.1802 10.9368Z" fill="white" stroke="black"/>
</svg>
