<svg width="35" height="30" viewBox="0 0 35 30" fill="none" xmlns="http://www.w3.org/2000/svg">
<circle cx="14" cy="14" r="14" fill="#A5C9CA" fill-opacity="0.5"/>
<path d="M16.7505 27.9723L18.1921 26.5307L14.4693 22.8079L13.0277 24.2495V25.9446H15.0554V27.9723H16.7505ZM25.0356 13.2713C25.0356 13.0389 24.9195 12.9228 24.6871 12.9228C24.5815 12.9228 24.4918 12.9597 24.4178 13.0337L15.8317 21.6198C15.7578 21.6937 15.7209 21.7835 15.7209 21.8891C15.7209 22.1215 15.837 22.2376 16.0694 22.2376C16.175 22.2376 16.2648 22.2007 16.3387 22.1267L24.9248 13.5406C24.9987 13.4667 25.0356 13.3769 25.0356 13.2713ZM24.1802 10.2297L30.7703 16.8198L17.5901 30H11V23.4099L24.1802 10.2297ZM35 11.7505C35 12.3102 34.8046 12.7855 34.4139 13.1762L31.7842 15.8059L25.1941 9.21584L27.8238 6.60198C28.204 6.20066 28.6792 6 29.2495 6C29.8092 6 30.2898 6.20066 30.6911 6.60198L34.4139 10.3089C34.8046 10.7208 35 11.2013 35 11.7505Z" fill="black"/>
</svg>
