<svg width="29" height="33" viewBox="0 0 29 33" fill="none" xmlns="http://www.w3.org/2000/svg">
<circle cx="14" cy="14" r="14" fill="#E7F6F2" fill-opacity="0.9"/>
<path d="M16.707 6.55273H16.207V7.05273V7.87891V8.37891H16.707H23.2988H23.7988V7.87891V7.05273V6.55273H23.2988H16.707ZM26.5918 26.0918H27.0918V25.5918V9.10937V8.60937H26.5918H13.4082H12.9082V9.10937V25.5918V26.0918H13.4082H26.5918ZM14.2344 6.31641H25.7656C26.8481 6.31641 27.7389 7.20531 27.7441 8.29017V29.7109C27.7441 30.7942 26.8547 31.6836 25.7715 31.6836H14.2344C13.1511 31.6836 12.2617 30.7942 12.2617 29.7109V8.28906C12.2617 7.20583 13.1511 6.31641 14.2344 6.31641ZM17.8535 28.8906C17.8535 30.075 18.8157 31.0371 20 31.0371C21.1843 31.0371 22.1465 30.075 22.1465 28.8906C22.1465 27.7063 21.1843 26.7441 20 26.7441C18.8157 26.7441 17.8535 27.7063 17.8535 28.8906Z" fill="white" stroke="black"/>
</svg>
